#tb 0: 1/10000000
0,          4,          4,        0,    37440, 0xd1bc5235
0,    1256670,    1256670,        0,    37440, 0x158e6167
0,    2086670,    2086670,        0,    37440, 0x427158c5
0,    2916670,    2916670,        0,    37440, 0x99304eea
0,    3756670,    3756670,        0,    37440, 0xabeb6c35
0,    4586670,    4586670,        0,    37440, 0xaa79b504
0,    5416670,    5416670,        0,    37440, 0x7e36ecca
0,    6256670,    6256670,        0,    37440, 0xf1b4138f
0,    7086670,    7086670,        0,    37440, 0x5eff21da
0,    7916670,    7916670,        0,    37440, 0x62e5963e
0,    8756670,    8756670,        0,    37440, 0x27b4bb6c
0,    9586670,    9586670,        0,    37440, 0x04260104
0,   10416670,   10416670,        0,    37440, 0xdf4e2474
0,   11256670,   11256670,        0,    37440, 0x8780e34c
0,   12086670,   12086670,        0,    37440, 0x630a7583
0,   12916670,   12916670,        0,    37440, 0x984b8f0e
0,   13756670,   13756670,        0,    37440, 0x70f376f2
0,   14586670,   14586670,        0,    37440, 0xde772d79
0,   15416670,   15416670,        0,    37440, 0x3dc2bd9f
0,   16256670,   16256670,        0,    37440, 0x02025d73
0,   17086670,   17086670,        0,    37440, 0xd6554f62
0,   17916670,   17916670,        0,    37440, 0x80643560
0,   18756670,   18756670,        0,    37440, 0x9ce51e0b
0,   19586670,   19586670,        0,    37440, 0x145fc900
0,   20416670,   20416670,        0,    37440, 0x0a87552a
0,   21256670,   21256670,        0,    37440, 0x1c07c825
0,   22086670,   22086670,        0,    37440, 0xb1a32605
0,   22916670,   22916670,        0,    37440, 0xff5e6696
0,   23756670,   23756670,        0,    37440, 0x6c9e9e68
0,   24586670,   24586670,        0,    37440, 0xf237bd6c
0,   25416670,   25416670,        0,    37440, 0xc7ccc918
0,   26256670,   26256670,        0,    37440, 0xacb3c881
0,   27086670,   27086670,        0,    37440, 0x19d5be85
0,   27506670,   27506670,        0,    37440, 0xdae7a7aa
0,   27916670,   27916670,        0,    37440, 0x6b0f9f69
0,   28756670,   28756670,        0,    37440, 0x353e8201
0,   29586670,   29586670,        0,    37440, 0x66c8d7e0
0,   30416670,   30416670,        0,    37440, 0x71431b9b
0,   31256670,   31256670,        0,    37440, 0x95a146bb
0,   32086670,   32086670,        0,    37440, 0xa3bdd43c
0,   32916670,   32916670,        0,    37440, 0xa95423ea
0,   33756670,   33756670,        0,    37440, 0x6cf82844
0,   34586670,   34586670,        0,    37440, 0x1f7db118
0,   35416670,   35416670,        0,    37440, 0x321c1c40
0,   36256670,   36256670,        0,    37440, 0xa1471f4b
0,   37086670,   37086670,        0,    37440, 0x24c07107
0,   37916670,   37916670,        0,    37440, 0xd0ca6495
0,   38756670,   38756670,        0,    37440, 0xb5ec3c38
0,   39586670,   39586670,        0,    37440, 0x68170812
0,   40416670,   40416670,        0,    37440, 0xd688706c
0,   41256670,   41256670,        0,    37440, 0x28bd0fbf
0,   42086670,   42086670,        0,    37440, 0x30559121
0,   42916670,   42916670,        0,    37440, 0x4b427672
0,   43756670,   43756670,        0,    37440, 0x38a70b06
0,   44586670,   44586670,        0,    37440, 0x6efe8ea6
0,   45416670,   45416670,        0,    37440, 0xf4060050
0,   46256670,   46256670,        0,    37440, 0x5fa21382
0,   47086670,   47086670,        0,    37440, 0xf7130133
0,   47916670,   47916670,        0,    37440, 0x1dbae1be
0,   48756670,   48756670,        0,    37440, 0xbdcd41a3
0,   49586670,   49586670,        0,    37440, 0xc0036222
0,   50006670,   50006670,        0,    37440, 0x68141016
